<svg width="137" height="64" viewBox="0 0 137 64" fill="none" xmlns="http://www.w3.org/2000/svg">
<path d="M30.8101 63.6143C31.2993 63.6468 31.6255 63.4516 31.8211 62.996L38.0506 47.7665L39.9423 62.638C39.9749 63.1587 40.4316 63.5167 40.9534 63.5167C41.5731 63.5167 42.0623 63.0285 41.9645 62.3777L39.6162 43.7638C39.5836 43.4384 39.4205 43.1781 39.127 43.0154L38.9639 42.8852C38.8008 42.8527 38.6377 42.8201 38.5399 42.8201C38.1159 42.8201 37.8223 43.0154 37.6267 43.4384L30.9079 59.9371L24.1566 43.4384C23.9935 43.0154 23.6673 42.8201 23.2107 42.8201C23.1129 42.8201 22.9498 42.8527 22.7867 42.8852C22.3953 43.0805 22.167 43.3733 22.1344 43.7638L19.6557 62.3452L19.623 62.5079C19.623 63.0285 19.9818 63.419 20.5363 63.5167C21.0581 63.6143 21.58 63.2238 21.6778 62.6706L23.6673 47.7014L29.9295 62.996C30.1252 63.3865 30.4187 63.5818 30.8101 63.6143Z" fill="#382A3C"/>
<path d="M46.4702 63.5167C46.6333 63.5492 46.7638 63.5818 46.9268 63.5818C47.3508 63.5818 47.677 63.3865 47.8727 62.9635L50.3514 57.0734H59.7446L62.2886 62.9635C62.4517 63.3865 62.7778 63.5818 63.2344 63.5818C63.3975 63.5818 63.528 63.5492 63.6584 63.5167C64.0172 63.3214 64.2129 63.0285 64.2129 62.638C64.2129 62.4753 64.1803 62.3126 64.1151 62.1499L56.0265 43.3733C55.8308 42.9503 55.5046 42.755 55.0806 42.755C54.6566 42.755 54.3305 42.9503 54.1674 43.3733L46.0136 62.1499C45.9484 62.3126 45.9158 62.4753 45.9158 62.638C45.8831 63.0285 46.0788 63.3214 46.4702 63.5167ZM55.048 46.0092L58.8966 55.0233H51.232L55.048 46.0092Z" fill="#382A3C"/>
<path d="M67.3442 62.573C67.3442 63.8746 69.399 63.8746 69.399 62.573V54.6328H73.8673C75.5632 54.6328 76.9983 54.0796 78.2051 52.9406C79.4118 51.8016 80.0315 50.4023 80.0315 48.7102C80.0315 47.0505 79.4118 45.6187 78.2051 44.4798C77.0636 43.3408 75.5959 42.755 73.8673 42.755H68.3879C67.7682 42.755 67.3442 43.1455 67.3442 43.7638V62.573ZM69.399 44.7726H73.8346C75.0414 44.7726 76.0199 45.1631 76.77 45.9116C77.5854 46.66 77.9768 47.6038 77.9768 48.6776C77.9768 49.719 77.5854 50.6301 76.8026 51.3786C75.9872 52.1921 75.0088 52.5826 73.8673 52.5826H69.399V44.7726Z" fill="#382A3C"/>
<path d="M84.3108 63.6468C85.9741 63.6794 87.2787 63.2563 88.2898 62.3777C89.2357 61.5642 89.9532 60.3276 90.9969 58.1147L91.2578 57.4639L97.1938 44.2194C97.2264 44.0893 97.259 43.9591 97.259 43.7964C97.259 43.1781 96.8024 42.755 96.2479 42.755C95.7587 42.755 95.4326 42.9503 95.2369 43.3733L90.0837 55.2185L84.6369 43.3733C84.4412 42.9503 84.1151 42.755 83.6585 42.755C83.104 42.755 82.6474 43.2106 82.6474 43.8289C82.6474 43.9591 82.68 44.0893 82.7452 44.2194L89.0726 57.6917L88.9747 57.9195C88.3224 59.3513 87.7354 60.3276 87.2461 60.8157C86.5938 61.434 85.648 61.7269 84.4412 61.6943C84.4086 61.6618 84.376 61.6618 84.3108 61.6618C83.7563 61.6618 83.2671 62.1174 83.2671 62.7357C83.2671 63.2889 83.6911 63.6468 84.3108 63.6468Z" fill="#382A3C"/>
<path d="M108.906 63.777C111.874 63.777 114.385 62.7357 116.472 60.6855C116.636 60.4903 116.733 60.2625 116.733 59.9696C116.733 59.6767 116.636 59.4164 116.44 59.2537C116.212 59.0585 115.983 58.9608 115.755 58.9608C115.461 58.9608 115.233 59.0585 115.005 59.2862C113.341 60.9133 111.352 61.7269 108.971 61.7269C106.59 61.7269 104.405 60.8157 102.839 59.1561C101.274 57.5941 100.393 55.4463 100.393 53.2009C100.393 48.5149 104.274 44.6425 108.938 44.6425C111.287 44.6425 113.309 45.4885 115.037 47.2133C115.2 47.376 115.461 47.4736 115.755 47.4736C116.048 47.4736 116.277 47.376 116.505 47.1807C116.668 46.9529 116.766 46.7251 116.766 46.4648C116.766 46.1719 116.668 45.9441 116.472 45.7489C114.385 43.6662 111.743 42.5923 108.971 42.5923C106.949 42.5923 105.122 43.0805 103.492 44.0893C101.893 45.0655 100.654 46.3672 99.7408 47.9943C98.795 49.6213 98.3384 51.3461 98.3384 53.2009C98.3384 55.1209 98.8276 56.9107 99.7734 58.5378C100.719 60.1323 101.991 61.4015 103.589 62.3452C105.253 63.2889 107.047 63.777 108.906 63.777Z" fill="#382A3C"/>
<path d="M135.174 63.5818C135.794 63.5818 136.25 63.0936 136.25 62.5404V43.8289C136.25 43.1781 135.794 42.755 135.174 42.755H129.173C127.053 42.755 125.292 43.4384 123.856 44.8052C122.356 46.2045 121.606 47.9617 121.606 50.0118C121.606 51.6389 122.095 53.0708 123.041 54.2748C123.987 55.5439 125.226 56.39 126.694 56.8456L122.095 61.7594C121.965 61.9221 121.867 62.0523 121.834 62.215C121.769 62.3452 121.736 62.4428 121.736 62.5404C121.736 62.8333 121.867 63.0611 122.128 63.2889C122.324 63.4841 122.552 63.5818 122.845 63.5818C123.139 63.5818 123.367 63.4841 123.596 63.2563L129.238 57.2687H134.13V62.5404C134.13 63.0936 134.619 63.5818 135.174 63.5818ZM129.173 55.1209C127.64 55.1209 126.335 54.6002 125.259 53.5589C124.248 52.5501 123.759 51.3786 123.759 50.0118C123.759 48.6126 124.28 47.4411 125.292 46.4323C126.335 45.3584 127.607 44.8377 129.108 44.8377H134.13V55.1209H129.173Z" fill="#382A3C"/>
<path d="M41.9207 36.51C42.0861 36.51 42.2101 36.428 42.2824 36.2743L42.3031 36.2436L44.1219 31.8076L44.6799 36.1514C44.7109 36.346 44.8659 36.4895 45.0726 36.4895C45.2896 36.4895 45.4859 36.2948 45.4549 36.0592L44.7212 30.3118C44.7109 30.1786 44.6386 30.0762 44.5042 30.0147L44.4629 29.9942C44.4112 29.9737 44.3595 29.9635 44.3079 29.9635C44.1529 29.9635 44.0288 30.0454 43.9565 30.1991L41.931 35.1269L39.9056 30.1991C39.8332 30.0659 39.7092 29.9635 39.5542 29.9635C39.5025 29.9635 39.4509 29.9737 39.3992 29.9942L39.2855 30.0659C39.2132 30.1172 39.1615 30.1991 39.1409 30.3118L38.3658 36.0489C38.3555 36.0592 38.3555 36.0797 38.3555 36.1104C38.3555 36.3153 38.5415 36.4895 38.7585 36.4895C38.9548 36.4895 39.1202 36.346 39.1305 36.1514L39.7299 31.7973L41.5694 36.2743C41.6417 36.428 41.7554 36.51 41.9207 36.51Z" fill="#382A3C"/>
<path d="M49.7033 36.4997C49.9203 36.4997 50.0856 36.346 50.0856 36.1104C50.0856 35.9055 49.9203 35.7313 49.7033 35.7313H47.2024V33.6004H49.0419C49.2589 33.6004 49.4243 33.4467 49.4243 33.2316C49.4243 33.0165 49.2589 32.8525 49.0419 32.8525H47.2024V30.7114H49.7033C50.1993 30.7114 50.1993 29.943 49.7033 29.943H46.8201C46.6031 29.943 46.4274 30.1069 46.4274 30.3221V36.1104C46.4274 36.3256 46.5721 36.4895 46.7891 36.4997H49.7033Z" fill="#382A3C"/>
<path d="M53.5296 36.4997C54.0876 36.4997 54.5527 36.3153 54.9247 35.9567C55.3071 35.5879 55.4931 35.1371 55.4931 34.6044C55.4931 34.0717 55.3071 33.6107 54.9247 33.2316C54.5423 32.8525 54.0773 32.6579 53.5296 32.6579L52.0415 32.6681V30.7114H54.5527C54.7697 30.7114 54.9454 30.5577 54.9454 30.3221C54.9454 30.1172 54.7697 29.943 54.5527 29.943H51.6488H51.6281C51.6281 29.943 51.6178 29.943 51.6075 29.943H51.5868C51.5868 29.9532 51.5765 29.9532 51.5661 29.9532C51.3905 29.9942 51.2561 30.1581 51.2561 30.3323V36.1104C51.2561 36.3256 51.4421 36.4997 51.6592 36.4997H53.5296ZM52.0415 33.3853L53.5193 33.375C53.8603 33.375 54.1497 33.4877 54.377 33.7234C54.6043 33.9692 54.718 34.2561 54.718 34.5737C54.718 34.8913 54.6043 35.1576 54.3873 35.383C54.1497 35.6187 53.8706 35.7313 53.5399 35.7313H52.0415V33.3853Z" fill="#382A3C"/>
<path d="M59.9663 36.4997C60.1833 36.4997 60.3486 36.346 60.3486 36.1104C60.3486 35.9055 60.1833 35.7313 59.9663 35.7313H57.4654V33.6004H59.3049C59.5219 33.6004 59.6872 33.4467 59.6872 33.2316C59.6872 33.0165 59.5219 32.8525 59.3049 32.8525H57.4654V30.7114H59.9663C60.4623 30.7114 60.4623 29.943 59.9663 29.943H57.0831C56.866 29.943 56.6904 30.1069 56.6904 30.3221V36.1104C56.6904 36.3256 56.835 36.4895 57.0521 36.4997H59.9663Z" fill="#382A3C"/>
<path d="M61.1884 36.469C61.2504 36.4895 61.3021 36.4997 61.3538 36.4997C61.5088 36.4997 61.6638 36.4178 61.7154 36.2641L63.8443 31.3465L66.0144 36.2641C66.0661 36.3973 66.2107 36.4997 66.3658 36.4997C66.4174 36.4997 66.4691 36.4895 66.5208 36.469C66.6241 36.428 66.6964 36.3563 66.7378 36.2538C66.7585 36.1924 66.7688 36.1411 66.7688 36.1002C66.7688 36.0489 66.7585 35.9977 66.7378 35.9465L64.2163 30.1889C64.1439 30.0352 64.0303 29.9532 63.8546 29.9532C63.6789 29.9532 63.5652 30.0147 63.5032 30.1479L63.4826 30.1786L63.4619 30.2299L60.9921 35.9465C60.9714 35.9977 60.9611 36.0489 60.9611 36.1104C60.9611 36.2641 61.0334 36.3973 61.1884 36.469Z" fill="#382A3C"/>
<path d="M70.4992 36.4997C71.0262 36.4997 71.4706 36.3256 71.822 35.9875C72.1837 35.6494 72.3697 35.2191 72.3697 34.7069C72.3697 34.1844 72.1837 33.7438 71.822 33.375C71.4603 33.0062 71.0262 32.8218 70.4992 32.8218H68.5357V30.3118C68.5357 30.0762 68.3807 29.943 68.1637 29.943C67.926 29.943 67.7607 30.1069 67.7607 30.3425V36.1104C67.7607 36.3256 67.9467 36.4997 68.1637 36.4997H70.4992ZM68.5357 33.5902H70.4889C70.7886 33.5902 71.0572 33.7029 71.2743 33.918C71.4913 34.1229 71.6049 34.3688 71.6049 34.6659C71.6049 34.9322 71.5016 35.1781 71.2949 35.4035C71.0882 35.6187 70.8299 35.7313 70.5095 35.7313H68.5357V33.5902Z" fill="#382A3C"/>
<path d="M73.5179 36.1207C73.5179 36.6124 74.2929 36.6124 74.2929 36.1207V33.6107H77.4758V36.1207C77.4758 36.3358 77.6411 36.4997 77.8582 36.4997C78.0752 36.4997 78.2509 36.3358 78.2509 36.1207V30.3221C78.2509 29.8303 77.4758 29.8303 77.4758 30.3221V32.8525H74.2929V30.3221C74.2929 29.8303 73.5179 29.8303 73.5179 30.3221V36.1207Z" fill="#382A3C"/>
<path d="M79.4588 36.469C79.5105 36.4895 79.5621 36.4997 79.6345 36.4997C79.7998 36.4997 79.9135 36.428 79.9858 36.2743L80.7196 34.5225H83.5821L84.3261 36.2743C84.3778 36.4075 84.5225 36.4997 84.6775 36.4997C84.7292 36.4997 84.7808 36.4895 84.8532 36.469C84.9978 36.3973 85.0702 36.2948 85.0702 36.1411C85.0598 36.0899 85.0495 36.0285 85.0185 35.9567L82.5177 30.1684C82.466 30.0352 82.3213 29.943 82.1663 29.943C81.9906 29.943 81.877 30.025 81.8046 30.1786L79.2831 35.9567C79.2521 36.008 79.2418 36.0694 79.2418 36.1309C79.2418 36.2948 79.3141 36.4075 79.4588 36.469ZM82.1456 31.1724L83.2514 33.7541H81.0502L82.1456 31.1724Z" fill="#382A3C"/>
<path d="M89.5447 36.1104C89.5343 36.6124 90.3714 36.6124 90.3507 36.1104V30.3323C90.3507 30.1172 90.1647 29.943 89.9477 29.943H88.0462C87.3952 29.943 86.7958 30.1889 86.3514 30.5987C85.8761 31.0494 85.6384 31.6027 85.6384 32.2583C85.6384 32.7603 85.7831 33.2111 86.0621 33.5902C86.3411 33.9795 86.7028 34.2561 87.1575 34.42L85.8244 35.8236C85.7521 35.9055 85.7107 35.9977 85.7107 36.0899C85.7107 36.3051 85.8657 36.4997 86.1034 36.4997C86.2171 36.4997 86.3204 36.4587 86.4031 36.3768L88.1289 34.5839H89.5447V36.1104ZM88.0462 33.7848C87.5812 33.7848 87.1988 33.6312 86.8888 33.3238C86.5891 33.0267 86.4444 32.6681 86.4444 32.2583C86.4444 31.8588 86.5995 31.5002 86.8991 31.1929C87.2092 30.8958 87.5915 30.7421 88.0359 30.7421H89.5447V33.7848H88.0462Z" fill="#382A3C"/>
<path d="M96.5561 36.1924C96.5561 36.3973 96.7421 36.5714 96.9591 36.5714C97.1968 36.5714 97.3415 36.4075 97.3415 36.1924V35.9772C98.0442 35.885 98.6849 35.5572 99.15 35.0552C99.6357 34.5327 99.8733 33.9078 99.8733 33.1804C99.8733 32.4735 99.6357 31.8485 99.15 31.3056C98.6849 30.7933 98.0752 30.486 97.3415 30.3938V30.2708C97.3415 30.0352 97.1865 29.8815 96.9695 29.8815C96.7318 29.8815 96.5561 30.0352 96.5561 30.2708V30.3835C95.8224 30.4757 95.2127 30.7728 94.7167 31.2953C94.2206 31.8178 93.9726 32.453 93.9726 33.1804C93.9726 33.9078 94.2206 34.5429 94.7167 35.0757C95.2127 35.5982 95.8224 35.8953 96.5561 35.9772V36.1924ZM96.5561 35.1986C96.0394 35.1064 95.6157 34.881 95.2747 34.5225C94.9337 34.1536 94.7683 33.7029 94.7683 33.1804C94.7683 32.6579 94.9337 32.2174 95.2747 31.8383C95.6157 31.4797 96.0498 31.2646 96.5561 31.1826V35.1986ZM97.3415 31.1826C97.8582 31.2748 98.2716 31.5002 98.5816 31.8588C98.9226 32.2276 99.088 32.6681 99.088 33.1804C99.0776 33.6926 98.9123 34.1331 98.5816 34.5122C98.2612 34.8708 97.8479 35.0962 97.3415 35.1884V31.1826Z" fill="#382A3C"/>
<path d="M100.681 36.469C100.733 36.4895 100.784 36.4997 100.857 36.4997C101.022 36.4997 101.136 36.428 101.208 36.2743L101.942 34.5225H104.804L105.548 36.2743C105.6 36.4075 105.745 36.4997 105.9 36.4997C105.951 36.4997 106.003 36.4895 106.075 36.469C106.22 36.3973 106.292 36.2948 106.292 36.1411C106.282 36.0899 106.272 36.0285 106.241 35.9567L103.74 30.1684C103.688 30.0352 103.544 29.943 103.389 29.943C103.213 29.943 103.099 30.025 103.027 30.1786L100.505 35.9567C100.474 36.008 100.464 36.0694 100.464 36.1309C100.464 36.2948 100.536 36.4075 100.681 36.469ZM103.368 31.1724L104.474 33.7541H102.273L103.368 31.1724Z" fill="#382A3C"/>
<path d="M109.537 36.4997C110.095 36.4997 110.56 36.3153 110.932 35.9567C111.315 35.5879 111.501 35.1371 111.501 34.6044C111.501 34.0717 111.315 33.6107 110.932 33.2316C110.55 32.8525 110.085 32.6579 109.537 32.6579L108.049 32.6681V30.7114H110.56C110.777 30.7114 110.953 30.5577 110.953 30.3221C110.953 30.1172 110.777 29.943 110.56 29.943H107.656H107.636C107.636 29.943 107.625 29.943 107.615 29.943H107.594C107.594 29.9532 107.584 29.9532 107.574 29.9532C107.398 29.9942 107.264 30.1581 107.264 30.3323V36.1104C107.264 36.3256 107.45 36.4997 107.667 36.4997H109.537ZM108.049 33.3853L109.527 33.375C109.868 33.375 110.157 33.4877 110.385 33.7234C110.612 33.9692 110.726 34.2561 110.726 34.5737C110.726 34.8913 110.612 35.1576 110.395 35.383C110.157 35.6187 109.878 35.7313 109.548 35.7313H108.049V33.3853Z" fill="#382A3C"/>
<path d="M112.698 36.1207C112.698 36.6124 113.473 36.6124 113.473 36.1207V33.7234H114.816C115.364 33.7234 115.829 33.5389 116.212 33.1804C116.594 32.8218 116.78 32.371 116.78 31.8383C116.78 31.2953 116.594 30.8445 116.212 30.486C115.829 30.1274 115.364 29.943 114.816 29.943H113.091C112.874 29.943 112.698 30.1069 112.698 30.3221V36.1207ZM113.473 30.7114H114.816C115.157 30.7114 115.447 30.8138 115.664 31.0187C116.129 31.4695 116.129 32.1661 115.674 32.6169C115.436 32.8423 115.157 32.955 114.827 32.955H113.473V30.7114Z" fill="#382A3C"/>
<path d="M118.899 36.4997C118.992 36.4997 119.064 36.469 119.126 36.4178L119.188 36.346L122.65 31.49V36.1207C122.619 36.6124 123.466 36.6124 123.425 36.1207V30.3323C123.425 30.1274 123.259 29.9635 123.053 29.9532H123.032C122.98 29.9532 122.929 29.9635 122.898 29.984H122.877L122.836 30.0147C122.815 30.025 122.794 30.0352 122.774 30.0557C122.763 30.0659 122.763 30.0659 122.763 30.0762L122.753 30.0864L122.743 30.0967H122.732V30.1069L119.271 34.963V30.3221C119.302 29.8303 118.454 29.8303 118.495 30.3221V36.1207C118.495 36.3153 118.62 36.4587 118.785 36.4895L118.826 36.4997H118.899Z" fill="#382A3C"/>
<path d="M124.777 36.1207C124.777 36.6124 125.553 36.6124 125.553 36.1207V34L126.483 33.1394L128.642 36.3256C128.715 36.4178 128.797 36.4792 128.89 36.4895C128.942 36.4997 128.963 36.4997 128.973 36.4997C129.056 36.4997 129.128 36.4792 129.18 36.4382C129.273 36.387 129.324 36.3051 129.345 36.1924V36.1309C129.345 36.0387 129.324 35.967 129.273 35.8953L127.072 32.6169L129.262 30.6089C129.345 30.5372 129.386 30.445 129.386 30.3323C129.386 30.2299 129.345 30.1479 129.273 30.0762C129.19 29.984 129.097 29.943 128.983 29.943C128.89 29.943 128.797 29.984 128.715 30.0557L125.553 32.955V30.3221C125.553 29.8303 124.777 29.8303 124.777 30.3221V36.1207Z" fill="#382A3C"/>
<path d="M130.194 36.469C130.245 36.4895 130.297 36.4997 130.369 36.4997C130.535 36.4997 130.648 36.428 130.721 36.2743L131.454 34.5225H134.317L135.061 36.2743C135.113 36.4075 135.257 36.4997 135.412 36.4997C135.464 36.4997 135.516 36.4895 135.588 36.469C135.733 36.3973 135.805 36.2948 135.805 36.1411C135.795 36.0899 135.784 36.0285 135.753 35.9567L133.252 30.1684C133.201 30.0352 133.056 29.943 132.901 29.943C132.725 29.943 132.612 30.025 132.539 30.1786L130.018 35.9567C129.987 36.008 129.977 36.0694 129.977 36.1309C129.977 36.2948 130.049 36.4075 130.194 36.469ZM132.88 31.1724L133.986 33.7541H131.785L132.88 31.1724Z" fill="#382A3C"/>
<g clip-path="url(#clip0_69_3636)">
<path fill-rule="evenodd" clip-rule="evenodd" d="M12.1178 42.634C11.8471 46.5024 11.6576 64.0813 6.52357 64.0003C0.658636 63.9014 -0.090273 41.0686 0.00897979 37.5151C0.198462 30.5699 0.487197 3.58088 8.54472 0.845989C16.2864 -1.76295 18.7948 11.6416 20.3919 15.9059C21.1137 17.8671 22.7469 22.1313 24.6327 23.5438C29.4329 21.3397 40.0439 -6.29711 46.4954 1.32279C49.2835 4.60646 48.2458 17.993 47.9842 22.6441C47.5511 19.8643 45.8277 8.59184 44.0141 5.11925C43.8607 5.35315 43.7343 5.57806 43.4998 6.01888C39.4665 13.6928 36.4077 29.4903 26.5817 31.9104C17.1526 34.2044 13.4352 21.7715 10.7463 13.8547C9.23047 21.4566 8.7342 32.6391 8.58984 37.74C8.43645 43.3177 7.3988 50.6857 7.58829 56.6323C9.39288 52.1341 11.4501 44.9371 12.0998 42.634H12.1178ZM43.581 4.46252C43.5054 4.36727 43.4174 4.28255 43.3193 4.21062C43.3798 4.31835 43.4708 4.40595 43.581 4.46252ZM5.77466 60.0149C5.73419 60.0496 5.69786 60.0889 5.66639 60.1319L5.77466 60.0149Z" fill="url(#paint0_linear_69_3636)"/>
</g>
<defs>
<linearGradient id="paint0_linear_69_3636" x1="24.1955" y1="-0.00218201" x2="24.1955" y2="64.0006" gradientUnits="userSpaceOnUse">
<stop stop-color="#FB1F2D"/>
<stop offset="1" stop-color="#CE0915"/>
</linearGradient>
<clipPath id="clip0_69_3636">
<rect width="48.3903" height="64" fill="white"/>
</clipPath>
</defs>
</svg>
